<mxfile host="app.diagrams.net" modified="2023-12-18T00:24:16.370Z" agent="Mozilla/5.0 (Windows NT 10.0; Win64; x64; rv:120.0) Gecko/20100101 Firefox/120.0" etag="EbJGhE4wwKOGnFYuw8Rk" version="22.1.11" type="device">
  <diagram name="Strona-1" id="I3sCva5p9m0G01Nb3mjD">
    <mxGraphModel dx="1050" dy="558" grid="1" gridSize="10" guides="1" tooltips="1" connect="1" arrows="1" fold="1" page="1" pageScale="1" pageWidth="827" pageHeight="1169" math="0" shadow="0">
      <root>
        <mxCell id="0" />
        <mxCell id="1" parent="0" />
        <mxCell id="EbLvoYdQaRQF7xcUyIVO-7" style="edgeStyle=orthogonalEdgeStyle;rounded=0;orthogonalLoop=1;jettySize=auto;html=1;exitX=0.5;exitY=1;exitDx=0;exitDy=0;" edge="1" parent="1" source="EbLvoYdQaRQF7xcUyIVO-1" target="EbLvoYdQaRQF7xcUyIVO-6">
          <mxGeometry relative="1" as="geometry" />
        </mxCell>
        <mxCell id="EbLvoYdQaRQF7xcUyIVO-1" value="Developing the Isles" style="rounded=0;whiteSpace=wrap;html=1;" vertex="1" parent="1">
          <mxGeometry x="707" width="120" height="60" as="geometry" />
        </mxCell>
        <mxCell id="EbLvoYdQaRQF7xcUyIVO-16" style="edgeStyle=orthogonalEdgeStyle;rounded=0;orthogonalLoop=1;jettySize=auto;html=1;exitX=0.5;exitY=1;exitDx=0;exitDy=0;" edge="1" parent="1" source="EbLvoYdQaRQF7xcUyIVO-2" target="EbLvoYdQaRQF7xcUyIVO-13">
          <mxGeometry relative="1" as="geometry" />
        </mxCell>
        <mxCell id="EbLvoYdQaRQF7xcUyIVO-2" value="Call of the Giants" style="rounded=0;whiteSpace=wrap;html=1;" vertex="1" parent="1">
          <mxGeometry x="354" width="120" height="60" as="geometry" />
        </mxCell>
        <mxCell id="EbLvoYdQaRQF7xcUyIVO-54" style="edgeStyle=orthogonalEdgeStyle;rounded=0;orthogonalLoop=1;jettySize=auto;html=1;exitX=0.5;exitY=1;exitDx=0;exitDy=0;" edge="1" parent="1" source="EbLvoYdQaRQF7xcUyIVO-3" target="EbLvoYdQaRQF7xcUyIVO-52">
          <mxGeometry relative="1" as="geometry" />
        </mxCell>
        <mxCell id="EbLvoYdQaRQF7xcUyIVO-3" value="Master of the Waves" style="rounded=0;whiteSpace=wrap;html=1;" vertex="1" parent="1">
          <mxGeometry width="120" height="60" as="geometry" />
        </mxCell>
        <mxCell id="EbLvoYdQaRQF7xcUyIVO-18" style="edgeStyle=orthogonalEdgeStyle;rounded=0;orthogonalLoop=1;jettySize=auto;html=1;exitX=0.5;exitY=1;exitDx=0;exitDy=0;" edge="1" parent="1" source="EbLvoYdQaRQF7xcUyIVO-4" target="EbLvoYdQaRQF7xcUyIVO-17">
          <mxGeometry relative="1" as="geometry" />
        </mxCell>
        <mxCell id="EbLvoYdQaRQF7xcUyIVO-19" style="edgeStyle=orthogonalEdgeStyle;rounded=0;orthogonalLoop=1;jettySize=auto;html=1;exitX=0.75;exitY=1;exitDx=0;exitDy=0;entryX=0.25;entryY=0;entryDx=0;entryDy=0;" edge="1" parent="1" source="EbLvoYdQaRQF7xcUyIVO-4" target="EbLvoYdQaRQF7xcUyIVO-13">
          <mxGeometry relative="1" as="geometry" />
        </mxCell>
        <mxCell id="EbLvoYdQaRQF7xcUyIVO-4" value="Outward Expansion" style="rounded=0;whiteSpace=wrap;html=1;" vertex="1" parent="1">
          <mxGeometry x="180" width="120" height="60" as="geometry" />
        </mxCell>
        <mxCell id="EbLvoYdQaRQF7xcUyIVO-15" style="edgeStyle=orthogonalEdgeStyle;rounded=0;orthogonalLoop=1;jettySize=auto;html=1;exitX=0.5;exitY=1;exitDx=0;exitDy=0;" edge="1" parent="1" source="EbLvoYdQaRQF7xcUyIVO-5" target="EbLvoYdQaRQF7xcUyIVO-8">
          <mxGeometry relative="1" as="geometry" />
        </mxCell>
        <mxCell id="EbLvoYdQaRQF7xcUyIVO-5" value="Diplomatic Move" style="rounded=0;whiteSpace=wrap;html=1;" vertex="1" parent="1">
          <mxGeometry x="530" width="120" height="60" as="geometry" />
        </mxCell>
        <mxCell id="EbLvoYdQaRQF7xcUyIVO-10" style="edgeStyle=orthogonalEdgeStyle;rounded=0;orthogonalLoop=1;jettySize=auto;html=1;exitX=0.5;exitY=1;exitDx=0;exitDy=0;" edge="1" parent="1" source="EbLvoYdQaRQF7xcUyIVO-6" target="EbLvoYdQaRQF7xcUyIVO-9">
          <mxGeometry relative="1" as="geometry" />
        </mxCell>
        <mxCell id="EbLvoYdQaRQF7xcUyIVO-6" value="Reinforcing the Isles" style="rounded=0;whiteSpace=wrap;html=1;" vertex="1" parent="1">
          <mxGeometry x="707" y="120" width="120" height="60" as="geometry" />
        </mxCell>
        <mxCell id="EbLvoYdQaRQF7xcUyIVO-29" style="edgeStyle=orthogonalEdgeStyle;rounded=0;orthogonalLoop=1;jettySize=auto;html=1;exitX=0.5;exitY=1;exitDx=0;exitDy=0;" edge="1" parent="1" source="EbLvoYdQaRQF7xcUyIVO-8" target="EbLvoYdQaRQF7xcUyIVO-20">
          <mxGeometry relative="1" as="geometry" />
        </mxCell>
        <mxCell id="EbLvoYdQaRQF7xcUyIVO-8" value="Alliance of the Sea Giants" style="rounded=0;whiteSpace=wrap;html=1;" vertex="1" parent="1">
          <mxGeometry x="530" y="120" width="120" height="60" as="geometry" />
        </mxCell>
        <mxCell id="EbLvoYdQaRQF7xcUyIVO-12" style="edgeStyle=orthogonalEdgeStyle;rounded=0;orthogonalLoop=1;jettySize=auto;html=1;exitX=0.5;exitY=1;exitDx=0;exitDy=0;" edge="1" parent="1" source="EbLvoYdQaRQF7xcUyIVO-9" target="EbLvoYdQaRQF7xcUyIVO-11">
          <mxGeometry relative="1" as="geometry" />
        </mxCell>
        <mxCell id="EbLvoYdQaRQF7xcUyIVO-9" value="Temple of Moroc" style="rounded=0;whiteSpace=wrap;html=1;" vertex="1" parent="1">
          <mxGeometry x="707" y="240" width="120" height="60" as="geometry" />
        </mxCell>
        <mxCell id="EbLvoYdQaRQF7xcUyIVO-11" value="Palace of the Sea King" style="rounded=0;whiteSpace=wrap;html=1;" vertex="1" parent="1">
          <mxGeometry x="707" y="360" width="120" height="60" as="geometry" />
        </mxCell>
        <mxCell id="EbLvoYdQaRQF7xcUyIVO-21" style="edgeStyle=orthogonalEdgeStyle;rounded=0;orthogonalLoop=1;jettySize=auto;html=1;exitX=0.75;exitY=1;exitDx=0;exitDy=0;entryX=0.25;entryY=0;entryDx=0;entryDy=0;" edge="1" parent="1" source="EbLvoYdQaRQF7xcUyIVO-13" target="EbLvoYdQaRQF7xcUyIVO-20">
          <mxGeometry relative="1" as="geometry" />
        </mxCell>
        <mxCell id="EbLvoYdQaRQF7xcUyIVO-26" style="edgeStyle=orthogonalEdgeStyle;rounded=0;orthogonalLoop=1;jettySize=auto;html=1;exitX=0.5;exitY=1;exitDx=0;exitDy=0;" edge="1" parent="1" source="EbLvoYdQaRQF7xcUyIVO-13" target="EbLvoYdQaRQF7xcUyIVO-14">
          <mxGeometry relative="1" as="geometry" />
        </mxCell>
        <mxCell id="EbLvoYdQaRQF7xcUyIVO-13" value="Settling the Coast" style="rounded=0;whiteSpace=wrap;html=1;" vertex="1" parent="1">
          <mxGeometry x="354" y="120" width="120" height="60" as="geometry" />
        </mxCell>
        <mxCell id="EbLvoYdQaRQF7xcUyIVO-28" style="edgeStyle=orthogonalEdgeStyle;rounded=0;orthogonalLoop=1;jettySize=auto;html=1;exitX=0.5;exitY=1;exitDx=0;exitDy=0;" edge="1" parent="1" source="EbLvoYdQaRQF7xcUyIVO-14" target="EbLvoYdQaRQF7xcUyIVO-27">
          <mxGeometry relative="1" as="geometry" />
        </mxCell>
        <mxCell id="EbLvoYdQaRQF7xcUyIVO-14" value="Quelling the Quilbards" style="rounded=0;whiteSpace=wrap;html=1;" vertex="1" parent="1">
          <mxGeometry x="354" y="240" width="120" height="60" as="geometry" />
        </mxCell>
        <mxCell id="EbLvoYdQaRQF7xcUyIVO-23" style="edgeStyle=orthogonalEdgeStyle;rounded=0;orthogonalLoop=1;jettySize=auto;html=1;exitX=0.5;exitY=1;exitDx=0;exitDy=0;" edge="1" parent="1" source="EbLvoYdQaRQF7xcUyIVO-17" target="EbLvoYdQaRQF7xcUyIVO-22">
          <mxGeometry relative="1" as="geometry" />
        </mxCell>
        <mxCell id="EbLvoYdQaRQF7xcUyIVO-17" value="Alcaz Expedition" style="rounded=0;whiteSpace=wrap;html=1;" vertex="1" parent="1">
          <mxGeometry x="180" y="120" width="120" height="60" as="geometry" />
        </mxCell>
        <mxCell id="EbLvoYdQaRQF7xcUyIVO-31" style="edgeStyle=orthogonalEdgeStyle;rounded=0;orthogonalLoop=1;jettySize=auto;html=1;exitX=0.5;exitY=1;exitDx=0;exitDy=0;" edge="1" parent="1" source="EbLvoYdQaRQF7xcUyIVO-20" target="EbLvoYdQaRQF7xcUyIVO-30">
          <mxGeometry relative="1" as="geometry" />
        </mxCell>
        <mxCell id="EbLvoYdQaRQF7xcUyIVO-20" value="Pressure on Whispereef" style="rounded=0;whiteSpace=wrap;html=1;" vertex="1" parent="1">
          <mxGeometry x="530" y="240" width="120" height="60" as="geometry" />
        </mxCell>
        <mxCell id="EbLvoYdQaRQF7xcUyIVO-25" style="edgeStyle=orthogonalEdgeStyle;rounded=0;orthogonalLoop=1;jettySize=auto;html=1;exitX=0.5;exitY=1;exitDx=0;exitDy=0;" edge="1" parent="1" source="EbLvoYdQaRQF7xcUyIVO-22" target="EbLvoYdQaRQF7xcUyIVO-24">
          <mxGeometry relative="1" as="geometry" />
        </mxCell>
        <mxCell id="EbLvoYdQaRQF7xcUyIVO-22" value="Dustwallow Coast" style="rounded=0;whiteSpace=wrap;html=1;" vertex="1" parent="1">
          <mxGeometry x="180" y="240" width="120" height="60" as="geometry" />
        </mxCell>
        <mxCell id="EbLvoYdQaRQF7xcUyIVO-48" style="edgeStyle=orthogonalEdgeStyle;rounded=0;orthogonalLoop=1;jettySize=auto;html=1;" edge="1" parent="1" source="EbLvoYdQaRQF7xcUyIVO-24" target="EbLvoYdQaRQF7xcUyIVO-46">
          <mxGeometry relative="1" as="geometry" />
        </mxCell>
        <mxCell id="EbLvoYdQaRQF7xcUyIVO-49" style="edgeStyle=orthogonalEdgeStyle;rounded=0;orthogonalLoop=1;jettySize=auto;html=1;exitX=0.25;exitY=1;exitDx=0;exitDy=0;" edge="1" parent="1" source="EbLvoYdQaRQF7xcUyIVO-24" target="EbLvoYdQaRQF7xcUyIVO-47">
          <mxGeometry relative="1" as="geometry" />
        </mxCell>
        <mxCell id="EbLvoYdQaRQF7xcUyIVO-24" value="Tanaris Coast" style="rounded=0;whiteSpace=wrap;html=1;" vertex="1" parent="1">
          <mxGeometry x="180" y="360" width="120" height="60" as="geometry" />
        </mxCell>
        <mxCell id="EbLvoYdQaRQF7xcUyIVO-27" value="Southfury River Control" style="rounded=0;whiteSpace=wrap;html=1;" vertex="1" parent="1">
          <mxGeometry x="354" y="360" width="120" height="60" as="geometry" />
        </mxCell>
        <mxCell id="EbLvoYdQaRQF7xcUyIVO-33" style="edgeStyle=orthogonalEdgeStyle;rounded=0;orthogonalLoop=1;jettySize=auto;html=1;exitX=0.5;exitY=1;exitDx=0;exitDy=0;" edge="1" parent="1" source="EbLvoYdQaRQF7xcUyIVO-30" target="EbLvoYdQaRQF7xcUyIVO-32">
          <mxGeometry relative="1" as="geometry" />
        </mxCell>
        <mxCell id="EbLvoYdQaRQF7xcUyIVO-30" value="War against the Naga" style="rounded=0;whiteSpace=wrap;html=1;" vertex="1" parent="1">
          <mxGeometry x="530" y="360" width="120" height="60" as="geometry" />
        </mxCell>
        <mxCell id="EbLvoYdQaRQF7xcUyIVO-35" style="edgeStyle=orthogonalEdgeStyle;rounded=0;orthogonalLoop=1;jettySize=auto;html=1;exitX=0.5;exitY=1;exitDx=0;exitDy=0;" edge="1" parent="1" source="EbLvoYdQaRQF7xcUyIVO-32" target="EbLvoYdQaRQF7xcUyIVO-34">
          <mxGeometry relative="1" as="geometry" />
        </mxCell>
        <mxCell id="EbLvoYdQaRQF7xcUyIVO-32" value="Control of Idra&#39;kess" style="rounded=0;whiteSpace=wrap;html=1;" vertex="1" parent="1">
          <mxGeometry x="530" y="480" width="120" height="60" as="geometry" />
        </mxCell>
        <mxCell id="EbLvoYdQaRQF7xcUyIVO-37" style="edgeStyle=orthogonalEdgeStyle;rounded=0;orthogonalLoop=1;jettySize=auto;html=1;exitX=0.5;exitY=1;exitDx=0;exitDy=0;" edge="1" parent="1" source="EbLvoYdQaRQF7xcUyIVO-34" target="EbLvoYdQaRQF7xcUyIVO-36">
          <mxGeometry relative="1" as="geometry" />
        </mxCell>
        <mxCell id="EbLvoYdQaRQF7xcUyIVO-34" value="Control of Kalimdor Currents" style="rounded=0;whiteSpace=wrap;html=1;" vertex="1" parent="1">
          <mxGeometry x="530" y="600" width="120" height="60" as="geometry" />
        </mxCell>
        <mxCell id="EbLvoYdQaRQF7xcUyIVO-39" style="edgeStyle=orthogonalEdgeStyle;rounded=0;orthogonalLoop=1;jettySize=auto;html=1;exitX=0.5;exitY=1;exitDx=0;exitDy=0;" edge="1" parent="1" source="EbLvoYdQaRQF7xcUyIVO-36" target="EbLvoYdQaRQF7xcUyIVO-38">
          <mxGeometry relative="1" as="geometry" />
        </mxCell>
        <mxCell id="EbLvoYdQaRQF7xcUyIVO-36" value="Throne of Nazjatar" style="rounded=0;whiteSpace=wrap;html=1;" vertex="1" parent="1">
          <mxGeometry x="530" y="720" width="120" height="60" as="geometry" />
        </mxCell>
        <mxCell id="EbLvoYdQaRQF7xcUyIVO-41" style="edgeStyle=orthogonalEdgeStyle;rounded=0;orthogonalLoop=1;jettySize=auto;html=1;exitX=0.5;exitY=1;exitDx=0;exitDy=0;" edge="1" parent="1" source="EbLvoYdQaRQF7xcUyIVO-38" target="EbLvoYdQaRQF7xcUyIVO-40">
          <mxGeometry relative="1" as="geometry" />
        </mxCell>
        <mxCell id="EbLvoYdQaRQF7xcUyIVO-45" style="edgeStyle=orthogonalEdgeStyle;rounded=0;orthogonalLoop=1;jettySize=auto;html=1;exitX=0.75;exitY=1;exitDx=0;exitDy=0;" edge="1" parent="1" source="EbLvoYdQaRQF7xcUyIVO-38" target="EbLvoYdQaRQF7xcUyIVO-42">
          <mxGeometry relative="1" as="geometry" />
        </mxCell>
        <mxCell id="EbLvoYdQaRQF7xcUyIVO-38" value="Overlord of the Naga" style="rounded=0;whiteSpace=wrap;html=1;" vertex="1" parent="1">
          <mxGeometry x="530" y="840" width="120" height="60" as="geometry" />
        </mxCell>
        <mxCell id="EbLvoYdQaRQF7xcUyIVO-44" style="edgeStyle=orthogonalEdgeStyle;rounded=0;orthogonalLoop=1;jettySize=auto;html=1;exitX=0.5;exitY=1;exitDx=0;exitDy=0;" edge="1" parent="1" source="EbLvoYdQaRQF7xcUyIVO-40" target="EbLvoYdQaRQF7xcUyIVO-43">
          <mxGeometry relative="1" as="geometry" />
        </mxCell>
        <mxCell id="EbLvoYdQaRQF7xcUyIVO-40" value="Ruler of Vash&#39;jir" style="rounded=0;whiteSpace=wrap;html=1;" vertex="1" parent="1">
          <mxGeometry x="530" y="960" width="120" height="60" as="geometry" />
        </mxCell>
        <mxCell id="EbLvoYdQaRQF7xcUyIVO-42" value="Master of the Ocean Currents" style="rounded=0;whiteSpace=wrap;html=1;" vertex="1" parent="1">
          <mxGeometry x="707" y="960" width="120" height="60" as="geometry" />
        </mxCell>
        <mxCell id="EbLvoYdQaRQF7xcUyIVO-43" value="New King of the Tides" style="rounded=0;whiteSpace=wrap;html=1;" vertex="1" parent="1">
          <mxGeometry x="530" y="1080" width="120" height="60" as="geometry" />
        </mxCell>
        <mxCell id="EbLvoYdQaRQF7xcUyIVO-51" style="edgeStyle=orthogonalEdgeStyle;rounded=0;orthogonalLoop=1;jettySize=auto;html=1;exitX=0.5;exitY=1;exitDx=0;exitDy=0;" edge="1" parent="1" source="EbLvoYdQaRQF7xcUyIVO-46" target="EbLvoYdQaRQF7xcUyIVO-50">
          <mxGeometry relative="1" as="geometry" />
        </mxCell>
        <mxCell id="EbLvoYdQaRQF7xcUyIVO-46" value="South Seas" style="rounded=0;whiteSpace=wrap;html=1;" vertex="1" parent="1">
          <mxGeometry x="180" y="480" width="120" height="60" as="geometry" />
        </mxCell>
        <mxCell id="EbLvoYdQaRQF7xcUyIVO-57" style="edgeStyle=orthogonalEdgeStyle;rounded=0;orthogonalLoop=1;jettySize=auto;html=1;exitX=0.5;exitY=1;exitDx=0;exitDy=0;" edge="1" parent="1" source="EbLvoYdQaRQF7xcUyIVO-47" target="EbLvoYdQaRQF7xcUyIVO-56">
          <mxGeometry relative="1" as="geometry" />
        </mxCell>
        <mxCell id="EbLvoYdQaRQF7xcUyIVO-47" value="Bane of Northrend" style="rounded=0;whiteSpace=wrap;html=1;" vertex="1" parent="1">
          <mxGeometry y="480" width="120" height="60" as="geometry" />
        </mxCell>
        <mxCell id="EbLvoYdQaRQF7xcUyIVO-50" value="Paradise Isles" style="rounded=0;whiteSpace=wrap;html=1;" vertex="1" parent="1">
          <mxGeometry x="180" y="600" width="120" height="60" as="geometry" />
        </mxCell>
        <mxCell id="EbLvoYdQaRQF7xcUyIVO-55" style="edgeStyle=orthogonalEdgeStyle;rounded=0;orthogonalLoop=1;jettySize=auto;html=1;exitX=0.5;exitY=1;exitDx=0;exitDy=0;entryX=0.5;entryY=0;entryDx=0;entryDy=0;" edge="1" parent="1" source="EbLvoYdQaRQF7xcUyIVO-52" target="EbLvoYdQaRQF7xcUyIVO-53">
          <mxGeometry relative="1" as="geometry" />
        </mxCell>
        <mxCell id="EbLvoYdQaRQF7xcUyIVO-52" value="Terror of the Tides" style="rounded=0;whiteSpace=wrap;html=1;" vertex="1" parent="1">
          <mxGeometry y="120" width="120" height="60" as="geometry" />
        </mxCell>
        <mxCell id="EbLvoYdQaRQF7xcUyIVO-59" style="edgeStyle=orthogonalEdgeStyle;rounded=0;orthogonalLoop=1;jettySize=auto;html=1;exitX=0.5;exitY=1;exitDx=0;exitDy=0;" edge="1" parent="1" source="EbLvoYdQaRQF7xcUyIVO-53" target="EbLvoYdQaRQF7xcUyIVO-58">
          <mxGeometry relative="1" as="geometry" />
        </mxCell>
        <mxCell id="EbLvoYdQaRQF7xcUyIVO-53" value="The Pirate King" style="rounded=0;whiteSpace=wrap;html=1;" vertex="1" parent="1">
          <mxGeometry y="240" width="120" height="60" as="geometry" />
        </mxCell>
        <mxCell id="EbLvoYdQaRQF7xcUyIVO-56" value="Bane of Pandaria" style="rounded=0;whiteSpace=wrap;html=1;" vertex="1" parent="1">
          <mxGeometry y="600" width="120" height="60" as="geometry" />
        </mxCell>
        <mxCell id="EbLvoYdQaRQF7xcUyIVO-58" value="The Giant of the Waves" style="rounded=0;whiteSpace=wrap;html=1;" vertex="1" parent="1">
          <mxGeometry y="360" width="120" height="60" as="geometry" />
        </mxCell>
        <mxCell id="EbLvoYdQaRQF7xcUyIVO-62" style="edgeStyle=orthogonalEdgeStyle;rounded=0;orthogonalLoop=1;jettySize=auto;html=1;exitX=0.5;exitY=1;exitDx=0;exitDy=0;" edge="1" parent="1" source="EbLvoYdQaRQF7xcUyIVO-60" target="EbLvoYdQaRQF7xcUyIVO-61">
          <mxGeometry relative="1" as="geometry" />
        </mxCell>
        <mxCell id="EbLvoYdQaRQF7xcUyIVO-60" value="The Oath of Power" style="rounded=0;whiteSpace=wrap;html=1;" vertex="1" parent="1">
          <mxGeometry x="707" y="600" width="120" height="60" as="geometry" />
        </mxCell>
        <mxCell id="EbLvoYdQaRQF7xcUyIVO-64" style="edgeStyle=orthogonalEdgeStyle;rounded=0;orthogonalLoop=1;jettySize=auto;html=1;exitX=0.5;exitY=1;exitDx=0;exitDy=0;" edge="1" parent="1" source="EbLvoYdQaRQF7xcUyIVO-61" target="EbLvoYdQaRQF7xcUyIVO-63">
          <mxGeometry relative="1" as="geometry" />
        </mxCell>
        <mxCell id="EbLvoYdQaRQF7xcUyIVO-61" value="Forging an Artifact: Killmaim" style="rounded=0;whiteSpace=wrap;html=1;" vertex="1" parent="1">
          <mxGeometry x="707" y="720" width="120" height="60" as="geometry" />
        </mxCell>
        <mxCell id="EbLvoYdQaRQF7xcUyIVO-63" value="Moroc, God of Tides?" style="rounded=0;whiteSpace=wrap;html=1;" vertex="1" parent="1">
          <mxGeometry x="707" y="840" width="120" height="60" as="geometry" />
        </mxCell>
      </root>
    </mxGraphModel>
  </diagram>
</mxfile>
